# xmcd
#
# Track frame offsets:
#	150
#	10179
#	20636
#	31507
#	43844
#	57139
#	70288
#	81206
#	92507
#	101810
#	114617
#	127009
#	140388
#	151333
#	163998
#	175675
#
# Disc length: 2462 seconds
#
# Revision: 1
# Processed by: cddbd v1.5.2PL0 Copyright (c) Steve Scherf et al.
# Submitted via: audiograbber 1.83.01
#
DISCID=cf099c10
DTITLE=Charley Pride - Charley Pride The Ultimate Hits Collection
DYEAR=2008
DGENRE=Country
TTITLE0=Just Between You and Me
TTITLE1=I Know One
TTITLE2=Does My Ring Hurt Your Finger
TTITLE3=Kaw-Liga
TTITLE4=All I Have To Offer You Is Me
TTITLE5=(I'm So) Afraid Of Losing You Again
TTITLE6=Is Anybody Goin' To San Antone
TTITLE7=I'm Just Me
TTITLE8=Kiss An Angel Good Mornin'
TTITLE9=She's Too Good To Be True
TTITLE10=Crystal Chandeliers
TTITLE11=Amazing Love
TTITLE12=Mississippi Cotton Picking Delta Town
TTITLE13=Hope You're Feelin' Me (Like I'm Feelin' You)
TTITLE14=She's Just An Old Love Turned Memory
TTITLE15=I'll Be Leaving Alone
EXTD=
EXTT0=
EXTT1=
EXTT2=
EXTT3=
EXTT4=
EXTT5=
EXTT6=
EXTT7=
EXTT8=
EXTT9=
EXTT10=
EXTT11=
EXTT12=
EXTT13=
EXTT14=
EXTT15=
PLAYORDER=
